<svg width="17" height="21" viewBox="0 0 17 21" fill="none" xmlns="http://www.w3.org/2000/svg">
<path d="M7 10V7.9L13.2 1.7L15.3 3.8L9.1 10H7ZM16 3.1L13.9 1L14.6 0.3C14.8 0.0999999 15.0333 0 15.3 0C15.5667 0 15.8 0.0999999 16 0.3L16.7 1C16.9 1.2 17 1.43333 17 1.7C17 1.96667 16.9 2.2 16.7 2.4L16 3.1ZM8 21C5.31667 18.7167 3.31267 16.5957 1.988 14.637C0.662667 12.679 0 10.8667 0 9.2C0 6.7 0.804333 4.70833 2.413 3.225C4.021 1.74167 5.88333 1 8 1C8.45 1 8.896 1.03733 9.338 1.112C9.77933 1.18733 10.2083 1.29167 10.625 1.425L5 7.075V12H9.95L15.55 6.4C15.7 6.83333 15.8127 7.28333 15.888 7.75C15.9627 8.21667 16 8.7 16 9.2C16 10.8667 15.3377 12.679 14.013 14.637C12.6877 16.5957 10.6833 18.7167 8 21Z" fill="#14484F"/>
</svg>
