<svg width="24" height="24" viewBox="0 0 24 24" fill="none" xmlns="http://www.w3.org/2000/svg">
<path d="M16.5 16.25L19.36 17.94L18.61 19.16L15 17V12H16.5V16.25ZM23 16C23 19.87 19.87 23 16 23C14.09 23 12.37 22.24 11.11 21H5C4.46957 21 3.96086 20.7893 3.58579 20.4142C3.21071 20.0391 3 19.5304 3 19V5C3 3.9 3.9 3 5 3H9.18C9.6 1.84 10.7 1 12 1C13.3 1 14.4 1.84 14.82 3H19C19.5304 3 20.0391 3.21071 20.4142 3.58579C20.7893 3.96086 21 4.46957 21 5V11.11C22.24 12.37 23 14.09 23 16ZM11 4C11 4.55 11.45 5 12 5C12.55 5 13 4.55 13 4C13 3.45 12.55 3 12 3C11.45 3 11 3.45 11 4ZM21 16C21 13.24 18.76 11 16 11C13.24 11 11 13.24 11 16C11 18.76 13.24 21 16 21C18.76 21 21 18.76 21 16Z" fill="#ECFFF9"/>
</svg>
